<?xml version="1.0" standalone="no"?>
<!DOCTYPE svg PUBLIC "-//W3C//DTD SVG 20010904//EN"
 "http://www.w3.org/TR/2001/REC-SVG-20010904/DTD/svg10.dtd">
<svg version="1.0" xmlns="http://www.w3.org/2000/svg"
 width="500.000000pt" height="500.000000pt" viewBox="0 0 500.000000 500.000000"
 preserveAspectRatio="xMidYMid meet">

<g transform="translate(0.000000,500.000000) scale(0.100000,-0.100000)"
fill="#000000" stroke="none">
<path d="M0 2500 l0 -2500 2500 0 2500 0 0 2500 0 2500 -2500 0 -2500 0 0
-2500z m1050 745 l0 -135 -175 0 c-110 0 -175 -4 -175 -10 0 -6 65 -10 175
-10 l175 0 0 -130 0 -130 -175 0 -175 0 0 -120 0 -120 -150 0 -150 0 0 395 0
395 325 0 325 0 0 -135z m422 -6 c72 -16 122 -42 173 -94 108 -107 130 -264
58 -397 -30 -55 -94 -117 -147 -142 l-34 -16 59 -182 c33 -101 60 -186 62
-191 1 -4 28 68 60 161 l58 168 2 230 c2 216 3 232 25 279 54 118 160 175 322
175 l60 0 0 -135 0 -134 -62 -3 -63 -3 -3 -185 -2 -185 62 -182 c35 -101 65
-183 68 -183 3 0 30 78 60 173 29 94 57 180 62 190 8 15 26 17 163 17 85 0
155 -1 155 -2 0 -2 -58 -178 -128 -393 l-128 -390 -179 0 -178 0 -65 178 c-36
97 -68 177 -73 177 -4 0 2 -28 15 -62 l24 -62 -42 -118 -41 -118 -175 0 -175
0 -128 383 c-70 210 -127 388 -127 395 0 6 12 12 27 12 25 0 25 1 -13 28 -54
39 -103 98 -128 151 -32 72 -29 198 7 272 45 92 143 169 240 189 60 11 70 11
129 -1z m1418 -718 l0 -78 78 -5 c134 -8 225 -65 274 -173 20 -46 23 -68 26
-252 l4 -203 -141 0 -141 0 0 168 c0 154 -2 170 -19 186 -11 10 -28 16 -38 14
-35 -6 -43 -46 -43 -210 l0 -158 -135 0 -135 0 0 395 0 395 135 0 135 0 0 -79z
m868 -91 c70 -30 154 -121 177 -191 85 -256 -143 -504 -398 -435 -110 30 -210
127 -238 229 -18 67 -7 183 23 242 26 51 93 121 139 146 84 45 206 49 297 9z
m669 -6 l48 -30 34 23 c48 33 107 46 177 40 114 -9 201 -65 252 -162 26 -49
27 -55 30 -267 l4 -218 -141 0 -141 0 -2 176 c-3 156 -5 178 -20 188 -13 8
-23 8 -35 0 -16 -10 -18 -32 -21 -188 l-2 -176 -135 0 -135 0 0 163 c0 173 -8
207 -50 207 -34 0 -40 -33 -40 -204 l0 -166 -140 0 -140 0 0 178 c0 207 11
277 54 341 61 90 156 133 283 127 60 -2 82 -8 120 -32z"/>
<path d="M1365 2940 c-41 -45 18 -110 70 -76 27 18 34 63 13 84 -18 18 -63 14
-83 -8z"/>
<path d="M3582 2168 c-23 -28 -18 -74 9 -88 52 -28 106 28 74 76 -17 26 -65
33 -83 12z"/>
</g>
</svg>
